<svg viewBox="0 0 598 358" xmlns="http://www.w3.org/2000/svg"><path d="m478 0c4.9 1.8 8.7 2.1 13 5.5s9 11 9 15v75.5h24.5c2.4 0 11.5 2.6 14.5 3.5 25.3 7.5 46.4 25.7 55 51l4 15.5v21c-1.8 4-2.1 8.7-3.5 13-12 36.7-57 60.5-94.5 54v83.5c0 4-5.7 12.4-9 15s-8.1 3.7-13 5.5h-456c-4.5-1.8-8.4-2-12.5-5s-7.5-8.7-9.5-15v-319c1.9-2.3 1.8-5.3 3.5-8 4.1-6.1 10.8-8.8 17.5-11zm-454.3 19.2c-2.5.8-4.9 2.3-4.8 5.2.4 103.8-.6 207.8.5 311.6 1.7 2.1 4.2 3.2 7 3l450.6-.5c2.2-1 4.1-2.3 4-5l-.2-82.9c-4.2-4.4-11-6.2-16.5-9.5-50.4-30.6-50-101.5.4-132 3.5-2.1 15.2-6.8 16.1-9.9.1-25.7.7-51.7-.3-77.3-1.7-2.1-4.2-3.2-7-3zm480.3 165.8c0-1.2-.7-2.2-1.5-3-3.5-4-12.4-14.4-16.2-16.8-9.7-6.2-21 2.7-16.2 13.2 9.3 11 16.8 26.2 26.3 36.7s14.3 7.5 20.9-2.1c14.2-20.7 24.8-46.1 38.8-67.2 4.4-11.6-8.9-19.6-17.8-11.8-12.3 16.4-22.1 34.8-34.4 51z" fill="#ff4b5b"/><path d="m504 185c12.4-16.2 22.1-34.7 34.4-51 8.9-7.8 22.1.2 17.8 11.8-14 21.1-24.6 46.5-38.8 67.2-6.6 9.6-12.7 11.2-20.9 2.1s-17-25.7-26.3-36.7c-4.9-10.5 6.5-19.4 16.2-13.2s12.7 12.8 16.2 16.8 1.5 1.8 1.5 3z" fill="#fff"/><g fill="#ff4b5b"><path d="m274 128c1.1 2.3 4.4 2.5 6.7 3.8 6.7 3.9 12.7 9.3 14.9 17.1 3.7 13.6-1.6 30.8-14.5 37.6-13.4 7-52.8 7.7-68.6 6.4-11.4-.9-15.6-3.6-16.5-15.5 1.7-29.3-2.2-61 0-90.1.6-7.9 2.6-14.5 11.5-15.5s49-1.3 60.6 1.5c27 6.4 31.7 43 5.9 54.6zm-53-7h33.5c.7 0 5-2.3 6-3 6.4-4.6 8.5-13.7 4.7-20.7s-9.9-4.9-15.7-6.3l-28.5-1zm0 53h33.5c2.8 0 11.5-4.1 13.5-6.5 8.6-10.3 3.1-25.6-10.6-27.4s-9.2-1-12.9-1.1c-7.8-.4-15.7.4-23.5 0z"/><path d="m100.8 71.3c29.9-.9 58.5.2 70 32.4 11.7 32.9 2.9 83.3-38.4 88.2s-20 1-28.9 1.1c-12.8.2-30.2 3.1-31.5-13.5-2.6-31.2 1.8-66.2.3-97.8 2.1-12.6 15.1-9.2 24.3-9.7 1.6 0 3.1-.7 4.2-.8zm-3.8 101.7h29.5c6.3 0 16-8.7 18.7-14.3 8-16.4 8.6-55.5-11.2-64.2s-12-3.5-14.5-3.5h-22.5z"/><path d="m350.8 70.3c16.8-2.2 42.6 1.9 50.8 18.7 3.1 6.3 4.7 15.5-2 20.1-13.1 8.9-17.8-12.8-25.2-17.9s-32.4-5.4-35.1 7.6 6.7 13.9 14.8 16.8c17.8 6.3 44.5 7.1 53 27 8.4 19.7-3 41.5-22.5 48.6s-50.4 4.7-64-13.1c-5.2-6.9-11.2-22.1-1.9-27.8 13.5-8.2 16 9.3 21.4 16.4 7.6 10.1 21.9 12.9 33.3 8.3 13.4-5.5 17.3-21.7 3.4-29-19.2-10.1-58-8.7-60.7-37.3-2.1-22.5 13.8-35.5 34.8-38.2z"/><path d="m125.8 252.2c4.1 3.3-.7 13.1-3.7 16.3-10.1 10.5-29.8 9.1-39-2.1s-8.1-41.2 10-48c10.2-3.8 26.6-1.7 32.2 8.8 3.4 6.4 1.1 14-6.6 9.6s-3.2-5.2-5.6-7.4c-5.6-5.3-15-4.7-19.9 1.2-5.6 6.7-6.4 22.2-1.6 29.3s15.4 8.4 21.5 2.6 6.5-15.3 12.7-10.3z"/><path d="m396.1 274.9c-.8-.5-.5-3.8-1.7-3.9-4.3.8-7.3 3.6-11.9 4.1-26.9 2.6-25.2-45.8-.1-42.9 4.4.5 7.6 3.7 11.6 4.9.2-4.1-1-17.5 3-19.5 6.2-3.1 7.6 2 8 7 1 10.9 1.1 33.2 0 44-.2 1.5-.9 5.3-2 6s-6.2.8-6.9.3zm-12.4-34.6c-13.7.9-12.7 27.4.8 26.8 13.6-.6 11.5-27.6-.8-26.8z"/><path d="m147 237c7-3.7 16.3-7.8 23-1.5s4 5.9 4 7v30c0 2.2-7.7 4.3-9.5.5s-1.4-8.5-1.4-9.6c0-4 .3-6.2 0-10.9s1.4-12.2-7.5-11.6-7.7 20.7-8.5 28.6-2.5 6.3-7.5 5.5-3.3-5.7-3.5-8.5c-.8-10.4-1.2-33 .1-43s10.9-6.5 10.9-4.1v17.5z"/><path d="m287 247c6.1-1.5 14.4-18 21.1-13.6 5.4 3.6-5.6 12.5-7.9 15.1 2.6 5.1 13 17 12.9 22s-4.6 6.6-8.1 4-10.5-18.4-12.5-18.3-3 1.9-3.2 2.2c-4.2 4.9 0 12.8-4.7 15.8s-8.2-2.8-8.6-7.5c-.7-8.7-1.1-38.8 1.1-46s9.9-3 9.9-1.1v27.5z"/><path d="m194 257c0 8.2 5.9 12.8 14 10.5 3.4-.9 10.7-9.8 13.5-5.6s-3.2 9.2-6.2 10.9c-9.2 5.4-23.7 2.9-29.6-6.2s-3.8-22.1 2.7-28.7c10.9-11.2 33.2-6.2 34.6 10.5s-1.6 6.6-7.4 7.6-1.8.9-2.1.9h-19.5zm18-7c0-13.9-16.8-13.4-18 0z"/><path d="m327 257c1.1 7.9 6.7 13.2 15.1 10.6 4.2-1.3 5.9-8 12.9-5.6 1.3 12.3-15.7 15.7-25 12.5-24.8-8.6-14.6-47.8 12-42s21.1 19.8 11 23.1c-.7.2-6.2 1.4-6.6 1.4h-19.5zm19-7c-1.2-13.4-18-13.9-18 0z"/><path d="m246.7 232.2c7-1.2 15.4.8 19.7 6.8s4 10.3-1.7 9.8-5.1-8.8-15.3-7.9c-13.7 1.3-11.6 31 5.6 25.6 3.8-1.2 7-10.7 11.9-8.1 5.8 3.1.8 9.7-2.5 12.5-11.4 9.6-32.3 4.1-34.4-11.6s2.8-24.8 16.7-27.2z"/></g></svg>