<svg fill="none" height="576" viewBox="0 0 673 576" width="673" xmlns="http://www.w3.org/2000/svg"><path d="m2.47082 346.45c-5.67723-51.976 1.75719-97.794 12.08488-139.043 21.2102-83.738 78.9521-160.083 168.2053-192.562 25.175-9.00019 51.956-13.70835 79.463-14.518293 68.621-2.090527 141.745 18.083493 206.095 46.844593 74.928 33.4889 155.836 100.9217 183.56 173.7707 41.017 108.572 13.529 174.018-13.083 213.052-70.906 105.009-233.787 142.105-378.59 141.12-47.029-.47-96.031-5.991-140.401-25.822-18.217-8.143-35.4367-18.519-49.8165-32.094-14.6735-13.706-25.626-30.216-35.3642-47.077 0 0-8.9615-18.599-9.4712-20.613-12.9156-39.725-18.29998-62.383-22.68228-103.058z" fill="#edf1f4"/></svg>